<?xml version="1.0" encoding="UTF-8"?>
<svg width="15px" height="9px" viewBox="0 0 15 9" version="1.1" xmlns="http://www.w3.org/2000/svg" xmlns:xlink="http://www.w3.org/1999/xlink">
    <!-- Generator: Sketch 49.3 (51167) - http://www.bohemiancoding.com/sketch -->
    <title>Shape</title>
    <desc>Created with Sketch.</desc>
    <defs></defs>
    <g id="1440" stroke="none" stroke-width="1" fill="none" fill-rule="evenodd">
        <g id="Property-internal" transform="translate(-1027.000000, -6469.000000)" fill="#FFFFFF" fill-rule="nonzero">
            <g id="Footer" transform="translate(30.000000, 6214.000000)">
                <g id="contact" transform="translate(995.500000, 69.000000)">
                    <g id="icon" transform="translate(2.000000, 101.000000)">
                        <path d="M0.43956331,85.7878592 C0.820573378,85.9782924 6.09633754,88.6135858 6.29269586,88.7117053 C6.48921027,88.8098249 6.74363322,88.8571429 6.99992922,88.8571429 C7.2563813,88.8571429 7.51049207,88.8098249 7.70716257,88.7117053 C7.9035209,88.6135858 13.1792851,85.9784376 13.560139,85.7878592 C13.9414613,85.5975712 14.302336,85 13.6019705,85 L0.397887895,85 C-0.302009339,85 0.0582410661,85.5975712 0.43956331,85.7878592 Z M13.6988432,87.62968 C13.2674877,87.8462038 7.96895501,90.5116767 7.70482171,90.6439552 C7.44053285,90.7766827 7.25542176,90.7938909 6.99999957,90.7938909 C6.74457738,90.7938909 6.55946629,90.7766827 6.29517743,90.6439552 C6.03104413,90.5116767 0.732822528,87.8462038 0.301155912,87.62968 C-0.00264405198,87.4774998 3.92149684e-07,87.656016 3.92149684e-07,87.7939807 C3.92149684e-07,87.9319454 3.92149684e-07,93.2824935 3.92149684e-07,93.2824935 C3.92149684e-07,93.5961314 0.434311452,94 0.771400302,94 L13.2285988,94 C13.5656877,94 13.9999988,93.5961314 13.9999988,93.2824935 C13.9999988,93.2824935 13.9999988,87.9319454 13.9999988,87.7939807 C13.9999988,87.656016 14.0031099,87.4774998 13.6988432,87.62968 Z" id="Shape"></path>
                    </g>
                </g>
            </g>
        </g>
    </g>
</svg>