<?xml version="1.0" encoding="UTF-8"?>
<svg width="18px" height="20px" viewBox="0 0 18 20" version="1.1" xmlns="http://www.w3.org/2000/svg" xmlns:xlink="http://www.w3.org/1999/xlink">
    <!-- Generator: sketchtool 49.2 (51160) - http://www.bohemiancoding.com/sketch -->
    <title>B9808D50-DE3A-4F42-9DAE-1BCFB53F5377</title>
    <desc>Created with sketchtool.</desc>
    <defs></defs>
    <g id="Desktop" stroke="none" stroke-width="1" fill="none" fill-rule="evenodd" opacity="1">
        <g id="Home-(dev)" transform="translate(-1372.000000, -744.000000)" fill="#FFFFFF" fill-rule="nonzero">
            <g id="Social" transform="translate(1372.000000, 42.000000)">
                <path d="M7.66366366,712 L4.77777778,718.666667 L12.021021,718.666667 L12.021021,722 L3.33333333,722 L0,722 L4.33033033,712 L7.66366366,712 Z M11.993994,715.333333 L11.996997,715.333333 L9.02102102,715.333333 L10.4624625,712 L11.993994,712 C13.6525068,712 14.996997,710.507616 14.996997,708.666667 C14.996997,706.825718 13.6525068,705.333333 11.993994,705.333333 L11.993994,702 C15.3110195,702 18,704.984768 18,708.666667 C18,712.348565 15.3110195,715.333333 11.993994,715.333333 Z M0,702 L9.00600601,702 L9.00600601,705.333333 L0,705.333333 L0,702 Z" id="zipl"></path>
            </g>
        </g>
    </g>
</svg>